<?xml version="1.0" encoding="UTF-8" standalone="no"?>
<!-- Created with Inkscape (http://www.inkscape.org/) -->

<svg
   xmlns:dc="http://purl.org/dc/elements/1.1/"
   xmlns:cc="http://creativecommons.org/ns#"
   xmlns:rdf="http://www.w3.org/1999/02/22-rdf-syntax-ns#"
   xmlns:svg="http://www.w3.org/2000/svg"
   xmlns="http://www.w3.org/2000/svg"
   xmlns:sodipodi="http://sodipodi.sourceforge.net/DTD/sodipodi-0.dtd"
   xmlns:inkscape="http://www.inkscape.org/namespaces/inkscape"
   width="299.61484"
   height="184.87329"
   id="svg17359"
   version="1.1"
   inkscape:version="0.91 r13725"
   sodipodi:docname="Audi_Logo.svg">
  <defs
     id="defs17361">
    <inkscape:perspective
       sodipodi:type="inkscape:persp3d"
       inkscape:vp_x="0 : 526.18109 : 1"
       inkscape:vp_y="0 : 1000 : 0"
       inkscape:vp_z="744.09448 : 526.18109 : 1"
       inkscape:persp3d-origin="372.04724 : 350.78739 : 1"
       id="perspective17367" />
    <inkscape:perspective
       id="perspective13734"
       inkscape:persp3d-origin="0.5 : 0.33333333 : 1"
       inkscape:vp_z="1 : 0.5 : 1"
       inkscape:vp_y="0 : 1000 : 0"
       inkscape:vp_x="0 : 0.5 : 1"
       sodipodi:type="inkscape:persp3d" />
    <clipPath
       clipPathUnits="userSpaceOnUse"
       id="clipPath32">
      <path
         d="m 755.157,668.555 55.455,0 0,34.057 -55.455,0 0,-34.057 z"
         id="path34" />
    </clipPath>
    <clipPath
       clipPathUnits="userSpaceOnUse"
       id="clipPath44">
      <path
         d="m 757.088,692.401 c 0,-4.574 3.707,-8.282 8.28,-8.282 l 0,0 c 4.574,0 8.282,3.708 8.282,8.282 l 0,0 c 0,4.573 -3.708,8.28 -8.282,8.28 l 0,0 c -4.573,0 -8.28,-3.707 -8.28,-8.28 m 1.017,0 c 0,4.011 3.252,7.263 7.263,7.263 l 0,0 c 4.012,0 7.264,-3.252 7.264,-7.263 l 0,0 c 0,-4.012 -3.252,-7.264 -7.264,-7.264 l 0,0 c -4.011,0 -7.263,3.252 -7.263,7.264"
         id="path46" />
    </clipPath>
    <clipPath
       clipPathUnits="userSpaceOnUse"
       id="clipPath404">
      <path
         d="m 755.953,692.401 c 0,-5.201 4.216,-9.416 9.415,-9.416 l 0,0 c 5.201,0 9.416,4.215 9.416,9.416 l 0,0 c 0,5.199 -4.215,9.414 -9.416,9.414 l 0,0 c -5.199,0 -9.415,-4.215 -9.415,-9.414 m 1.135,0 c 0,4.573 3.707,8.28 8.28,8.28 l 0,0 c 4.574,0 8.282,-3.707 8.282,-8.28 l 0,0 c 0,-4.574 -3.708,-8.282 -8.282,-8.282 l 0,0 c -4.573,0 -8.28,3.708 -8.28,8.282"
         id="path406" />
    </clipPath>
    <clipPath
       clipPathUnits="userSpaceOnUse"
       id="clipPath764">
      <path
         d="m 792.123,692.389 c 0,-4.574 3.707,-8.281 8.28,-8.281 l 0,0 c 4.575,0 8.282,3.707 8.282,8.281 l 0,0 c 0,4.573 -3.707,8.281 -8.282,8.281 l 0,0 c -4.573,0 -8.28,-3.708 -8.28,-8.281 m 1.018,0 c 0,4.011 3.252,7.263 7.262,7.263 l 0,0 c 4.012,0 7.264,-3.252 7.264,-7.263 l 0,0 c 0,-4.012 -3.252,-7.263 -7.264,-7.263 l 0,0 c -4.01,0 -7.262,3.251 -7.262,7.263"
         id="path766" />
    </clipPath>
    <clipPath
       clipPathUnits="userSpaceOnUse"
       id="clipPath1124">
      <path
         d="m 790.989,692.389 c 0,-5.2 4.215,-9.416 9.414,-9.416 l 0,0 c 5.201,0 9.416,4.216 9.416,9.416 l 0,0 c 0,5.2 -4.215,9.415 -9.416,9.415 l 0,0 c -5.199,0 -9.414,-4.215 -9.414,-9.415 m 1.134,0 c 0,4.573 3.707,8.281 8.28,8.281 l 0,0 c 4.575,0 8.282,-3.708 8.282,-8.281 l 0,0 c 0,-4.574 -3.707,-8.281 -8.282,-8.281 l 0,0 c -4.573,0 -8.28,3.707 -8.28,8.281"
         id="path1126" />
    </clipPath>
    <clipPath
       clipPathUnits="userSpaceOnUse"
       id="clipPath1484">
      <path
         d="m 771.206,698.279 0,-1.554 c 1.323,1.789 3.448,2.95 5.845,2.95 l 0,0 c 2.393,0 4.516,-1.156 5.839,-2.942 l 0,0 0,1.552 c -1.497,1.488 -3.56,2.408 -5.839,2.408 l 0,0 c -2.281,0 -4.347,-0.922 -5.845,-2.414 m 0,-11.732 c 1.498,-1.493 3.564,-2.416 5.845,-2.416 l 0,0 c 2.279,0 4.342,0.92 5.839,2.41 l 0,0 0,1.55 c -1.323,-1.784 -3.446,-2.942 -5.839,-2.942 l 0,0 c -2.397,0 -4.522,1.161 -5.845,2.951 l 0,0 0,-1.553 z"
         id="path1486" />
    </clipPath>
    <clipPath
       clipPathUnits="userSpaceOnUse"
       id="clipPath1844">
      <path
         d="m 771.206,699.794 0,-1.515 c 1.498,1.492 3.564,2.414 5.845,2.414 l 0,0 c 2.279,0 4.342,-0.92 5.839,-2.408 l 0,0 0,1.514 c -1.605,1.27 -3.633,2.028 -5.839,2.028 l 0,0 c -2.208,0 -4.239,-0.76 -5.845,-2.033 m 0,-14.764 c 1.606,-1.272 3.637,-2.034 5.845,-2.034 l 0,0 c 2.206,0 4.234,0.759 5.839,2.03 l 0,0 0,1.515 c -1.497,-1.49 -3.56,-2.41 -5.839,-2.41 l 0,0 c -2.281,0 -4.347,0.923 -5.845,2.416 l 0,0 0,-1.517 z"
         id="path1846" />
    </clipPath>
    <clipPath
       clipPathUnits="userSpaceOnUse"
       id="clipPath2204">
      <path
         d="m 782.89,698.274 0,-1.549 c 1.324,1.779 3.443,2.932 5.832,2.932 l 0,0 c 2.401,0 4.532,-1.165 5.853,-2.963 l 0,0 0,1.557 c -1.498,1.498 -3.568,2.424 -5.853,2.424 l 0,0 c -2.275,0 -4.335,-0.917 -5.832,-2.401 m 5.832,-13.144 c -2.389,0 -4.508,1.154 -5.832,2.933 l 0,0 0,-1.548 c 1.497,-1.485 3.557,-2.402 5.832,-2.402 l 0,0 c 2.285,0 4.355,0.926 5.853,2.424 l 0,0 0,1.557 c -1.321,-1.797 -3.452,-2.964 -5.853,-2.964"
         id="path2206" />
    </clipPath>
    <clipPath
       clipPathUnits="userSpaceOnUse"
       id="clipPath2564">
      <path
         d="m 782.89,699.787 0,-1.513 c 1.497,1.484 3.557,2.401 5.832,2.401 l 0,0 c 2.285,0 4.355,-0.926 5.853,-2.424 l 0,0 0,1.518 c -1.607,1.278 -3.641,2.04 -5.853,2.04 l 0,0 c -2.203,0 -4.228,-0.756 -5.832,-2.022 m 5.832,-15.674 c -2.275,0 -4.335,0.917 -5.832,2.402 l 0,0 0,-1.513 c 1.604,-1.267 3.629,-2.023 5.832,-2.023 l 0,0 c 2.212,0 4.246,0.763 5.853,2.041 l 0,0 0,1.517 c -1.498,-1.498 -3.568,-2.424 -5.853,-2.424"
         id="path2566" />
    </clipPath>
    <clipPath
       clipPathUnits="userSpaceOnUse"
       id="clipPath2924">
      <path
         d="m 782.89,698.253 0,-1.528 c 0.434,0.583 0.953,1.099 1.539,1.528 l 0,0 -1.539,0 z m 11.685,-1.559 c 0.886,-1.204 1.409,-2.691 1.409,-4.3 l 0,0 c 0,-1.609 -0.523,-3.096 -1.409,-4.3 l 0,0 0,-1.549 0.008,0 c 1.495,1.498 2.42,3.566 2.42,5.849 l 0,0 c 0,2.288 -0.929,4.359 -2.428,5.857 l 0,0 0,-1.557 z m -11.685,-10.149 1.525,0 c -0.58,0.428 -1.095,0.94 -1.525,1.518 l 0,0 0,-1.518 z"
         id="path2926" />
    </clipPath>
    <clipPath
       clipPathUnits="userSpaceOnUse"
       id="clipPath3284">
      <path
         d="m 794.575,698.253 0,-0.002 c 1.499,-1.498 2.428,-3.569 2.428,-5.857 l 0,0 c 0,-2.283 -0.925,-4.351 -2.42,-5.849 l 0,0 1.516,0 c 1.276,1.607 2.037,3.639 2.037,5.849 l 0,0 c 0,2.215 -0.764,4.252 -2.045,5.859 l 0,0 -1.516,0 z"
         id="path3286" />
    </clipPath>
    <clipPath
       clipPathUnits="userSpaceOnUse"
       id="clipPath3644">
      <path
         d="m 782.89,698.253 0,-1.52 c 0.896,-1.207 1.425,-2.702 1.425,-4.321 l 0,0 c 0,-1.618 -0.529,-3.113 -1.425,-4.321 l 0,0 0,-1.546 0.005,0 c 1.505,1.5 2.437,3.575 2.437,5.867 l 0,0 c 0,2.28 -0.921,4.345 -2.411,5.841 l 0,0 -0.031,0 z m -11.684,0 0,-1.528 c 0.431,0.581 0.945,1.098 1.528,1.528 l 0,0 -1.528,0 z m 0,-11.706 c 0,-10e-4 10e-4,-0.002 0.002,-0.002 l 0,0 1.562,0 c -0.597,0.436 -1.124,0.961 -1.564,1.555 l 0,0 0,-1.553 z"
         id="path3646" />
    </clipPath>
    <clipPath
       clipPathUnits="userSpaceOnUse"
       id="clipPath4004">
      <path
         d="m 782.921,698.253 c 1.49,-1.496 2.411,-3.561 2.411,-5.841 l 0,0 c 0,-2.292 -0.932,-4.367 -2.437,-5.867 l 0,0 1.52,0 c 1.284,1.609 2.052,3.649 2.052,5.867 l 0,0 c 0,2.207 -0.759,4.237 -2.031,5.841 l 0,0 -1.515,0 z m -11.715,-11.708 0.002,0 c -10e-4,0 -0.002,0.001 -0.002,0.002 l 0,0 0,-0.002 z"
         id="path4006" />
    </clipPath>
    <clipPath
       clipPathUnits="userSpaceOnUse"
       id="clipPath4364">
      <path
         d="m 771.206,698.253 0,-1.53 c 0.896,-1.208 1.426,-2.703 1.426,-4.322 l 0,0 c 0,-1.62 -0.53,-3.115 -1.426,-4.323 l 0,0 0,-1.533 0.018,0 c 1.499,1.499 2.426,3.569 2.426,5.856 l 0,0 c 0,2.285 -0.926,4.354 -2.424,5.852 l 0,0 -0.02,0 z"
         id="path4366" />
    </clipPath>
    <clipPath
       clipPathUnits="userSpaceOnUse"
       id="clipPath4724">
      <path
         d="m 771.226,698.253 c 1.498,-1.498 2.424,-3.567 2.424,-5.852 l 0,0 c 0,-2.287 -0.927,-4.357 -2.426,-5.856 l 0,0 1.519,0 c 1.278,1.608 2.041,3.643 2.041,5.856 l 0,0 c 0,2.211 -0.763,4.246 -2.04,5.852 l 0,0 -1.518,0 z"
         id="path4726" />
    </clipPath>
    <clipPath
       clipPathUnits="userSpaceOnUse"
       id="clipPath5084">
      <path
         d="m 781.369,698.253 c 0.579,-0.428 1.092,-0.941 1.521,-1.52 l 0,0 0,1.52 -1.521,0 z m -10.187,0 c -1.49,-1.496 -2.412,-3.561 -2.412,-5.841 l 0,0 c 0,-2.292 0.932,-4.367 2.436,-5.865 l 0,0 0,1.553 c -0.891,1.206 -1.418,2.698 -1.418,4.312 l 0,0 c 0,1.615 0.527,3.107 1.418,4.313 l 0,0 0,1.528 -0.024,0 z m 10.151,-11.708 1.557,0 0,1.546 c -0.438,-0.59 -0.963,-1.112 -1.557,-1.546"
         id="path5086" />
    </clipPath>
    <clipPath
       clipPathUnits="userSpaceOnUse"
       id="clipPath5444">
      <path
         d="m 769.667,698.253 c -1.272,-1.604 -2.031,-3.634 -2.031,-5.841 l 0,0 c 0,-2.218 0.768,-4.258 2.051,-5.867 l 0,0 1.519,0 0,0.002 c -1.504,1.498 -2.436,3.573 -2.436,5.865 l 0,0 c 0,2.28 0.922,4.345 2.412,5.841 l 0,0 -1.515,0 z"
         id="path5446" />
    </clipPath>
    <clipPath
       clipPathUnits="userSpaceOnUse"
       id="clipPath5804">
      <path
         d="m 793.014,698.253 c 0.596,-0.437 1.124,-0.964 1.561,-1.559 l 0,0 0,1.557 -0.002,0.002 -1.559,0 z m -10.144,0 c -1.501,-1.498 -2.43,-3.57 -2.43,-5.859 l 0,0 c 0,-2.283 0.925,-4.351 2.42,-5.849 l 0,0 0.03,0 0,1.518 c -0.899,1.21 -1.431,2.709 -1.431,4.331 l 0,0 c 0,1.623 0.532,3.122 1.431,4.331 l 0,0 0,1.528 -0.02,0 z m 10.158,-11.708 1.547,0 0,1.549 c -0.435,-0.59 -0.957,-1.113 -1.547,-1.549"
         id="path5806" />
    </clipPath>
    <clipPath
       clipPathUnits="userSpaceOnUse"
       id="clipPath6164">
      <path
         d="m 794.573,698.253 0.002,-0.002 0,0.002 -0.002,0 z m -13.221,0 c -1.281,-1.607 -2.045,-3.644 -2.045,-5.859 l 0,0 c 0,-2.21 0.762,-4.242 2.037,-5.849 l 0,0 1.516,0 c -1.495,1.498 -2.42,3.566 -2.42,5.849 l 0,0 c 0,2.289 0.929,4.361 2.43,5.859 l 0,0 -1.518,0 z"
         id="path6166" />
    </clipPath>
    <clipPath
       clipPathUnits="userSpaceOnUse"
       id="clipPath6524">
      <path
         d="m 794.558,698.253 c -1.504,-1.498 -2.435,-3.573 -2.435,-5.864 l 0,0 c 0,-2.282 0.923,-4.346 2.414,-5.844 l 0,0 0.038,0 0,1.509 c -0.901,1.21 -1.434,2.709 -1.434,4.335 l 0,0 c 0,1.624 0.533,3.125 1.434,4.334 l 0,0 0,1.53 -0.017,0 z"
         id="path6526" />
    </clipPath>
    <clipPath
       clipPathUnits="userSpaceOnUse"
       id="clipPath6884">
      <path
         d="m 793.039,698.253 c -1.283,-1.608 -2.05,-3.646 -2.05,-5.864 l 0,0 c 0,-2.208 0.76,-4.238 2.032,-5.844 l 0,0 1.516,0 c -1.491,1.498 -2.414,3.562 -2.414,5.844 l 0,0 c 0,2.291 0.931,4.366 2.435,5.864 l 0,0 -1.519,0 z"
         id="path6886" />
    </clipPath>
    <clipPath
       clipPathUnits="userSpaceOnUse"
       id="clipPath7244">
      <path
         d="m 755.157,668.555 55.455,0 0,34.057 -55.455,0 0,-34.057 z"
         id="path7246" />
    </clipPath>
  </defs>
  <sodipodi:namedview
     id="base"
     pagecolor="#ffffff"
     bordercolor="#666666"
     borderopacity="1.0"
     inkscape:pageopacity="0.0"
     inkscape:pageshadow="2"
     inkscape:zoom="2.8284271"
     inkscape:cx="149.44901"
     inkscape:cy="77.555235"
     inkscape:document-units="px"
     inkscape:current-layer="g10148"
     showgrid="false"
     inkscape:window-width="1600"
     inkscape:window-height="838"
     inkscape:window-x="1592"
     inkscape:window-y="-8"
     inkscape:window-maximized="1" />
  <metadata
     id="metadata17364">
    <rdf:RDF>
      <cc:Work
         rdf:about="">
        <dc:format>image/svg+xml</dc:format>
        <dc:type
           rdf:resource="http://purl.org/dc/dcmitype/StillImage" />
        <dc:title />
      </cc:Work>
    </rdf:RDF>
  </metadata>
  <g
     inkscape:label="Layer 1"
     inkscape:groupmode="layer"
     id="layer1"
     transform="translate(-153.70125,-228.65005)">
    <g
       transform="matrix(5.4193281,0,0,-5.4193281,-3939.4436,4035.127)"
       id="g10148">
      <g
         id="g7240"
         transform="translate(0.83879122,-3.5415644)" />
      <path
         style="opacity:1;fill:#808080;fill-opacity:1;stroke:none;stroke-opacity:1"
         d="M 50.398586,122.76382 C 32.541282,119.47754 17.490972,106.54525 11.671194,89.486506 2.9348422,63.878799 16.275778,35.863704 41.766107,26.289151 56.708756,20.676466 74.310093,22.810714 87.389458,31.821205 l 3.403305,2.344565 4.257924,-2.775457 c 5.142923,-3.352321 9.897793,-5.434007 15.818503,-6.925339 6.13533,-1.545394 17.71535,-1.535818 23.46066,0.0194 5.79197,1.567847 11.25109,3.998265 15.76066,7.016693 l 4.03098,2.698092 2.93834,-2.061126 c 17.01343,-11.934241 40.39525,-11.875465 57.59423,0.144777 l 2.88361,2.015331 1.99431,-1.579528 c 1.09688,-0.868741 3.89037,-2.579448 6.20777,-3.801572 24.8549,-13.107701 55.58733,-3.113971 68.21858,22.183668 3.63097,7.272021 5.12743,13.758007 5.12743,22.223356 0,3.333504 -0.28453,7.424621 -0.63229,9.091373 -4.17487,20.009372 -18.32389,34.844342 -37.94316,39.782652 -6.02553,1.51667 -17.6761,1.50093 -23.32211,-0.0315 -5.79196,-1.57206 -11.25359,-4.00276 -15.73738,-7.00394 l -4.00771,-2.68251 -3.34141,2.20754 c -17.94343,11.85452 -40.03426,11.75191 -57.16715,-0.26555 l -2.81306,-1.97315 -4.03098,2.69809 c -4.50293,3.01398 -9.95544,5.44302 -15.76066,7.0212 -3.13473,0.8522 -5.37497,1.05657 -11.70536,1.06782 -6.84165,0.0122 -8.43684,-0.14947 -12.65233,-1.28205 -5.60922,-1.50705 -10.949528,-3.9391 -15.761637,-7.17808 l -3.4127,-2.29705 -3.40583,2.34629 c -10.323865,7.11217 -24.709432,10.19925 -36.993407,7.93863 z m 15.739202,-9.99784 c 2.038427,-0.3914 5.267541,-1.30057 7.175805,-2.02036 3.403477,-1.2838 9.10603,-4.44896 9.675443,-5.3703 0.158761,-0.25688 -0.600697,-1.77774 -1.687677,-3.37971 -11.970848,-17.6423 -11.980298,-39.686709 -0.02457,-57.30691 1.073464,-1.582061 1.951756,-3.068208 1.951756,-3.302548 0,-1.15862 -8.931703,-5.569369 -14.22767,-7.026063 C 64.51716,33.126814 53.876556,33.10878 49.388433,34.32685 22.724415,41.563428 10.728182,71.984876 25.482258,94.950916 c 8.790576,13.683324 25.055406,20.810494 40.65553,17.815064 z m 63.134532,-0.013 c 5.36681,-1.04931 9.24408,-2.51954 13.64426,-5.1738 l 3.87711,-2.33875 -2.59474,-3.83636 c -2.93971,-4.34638 -5.83929,-10.740979 -7.23613,-15.958184 -1.36107,-5.083694 -1.35686,-19.187811 0.007,-24.242646 1.49642,-5.545094 4.16041,-11.421632 7.13354,-15.735964 l 2.73101,-3.963036 -1.11967,-0.893792 c -2.03628,-1.62549 -10.15602,-5.404161 -13.49404,-6.279699 -4.63009,-1.21444 -14.71713,-1.196203 -19.44543,0.03516 -3.96865,1.033526 -10.86565,4.203345 -13.069338,6.006587 l -1.452579,1.188621 2.412957,3.507097 c 3.18374,4.627398 5.61166,9.994629 7.18413,15.881465 1.78474,6.681514 1.87928,17.271143 0.21391,23.960787 -1.30614,5.246632 -4.65445,12.602416 -7.73667,16.996436 l -2.15666,3.07452 1.241205,0.98044 c 2.096565,1.65608 10.163165,5.39276 13.363045,6.19014 5.88201,1.46574 11.10135,1.65588 16.49681,0.60097 l 0,1e-5 z m 63.55777,0.004 c 2.08344,-0.37722 5.34938,-1.27846 7.25765,-2.00275 3.41728,-1.29706 9.10945,-4.46267 9.67769,-5.38211 0.16,-0.25888 -0.53806,-1.55246 -1.55124,-2.87463 -2.63364,-3.436834 -6.55414,-11.784128 -7.88985,-16.798616 -0.9615,-3.609669 -1.14356,-5.579694 -1.14356,-12.374369 0,-6.837024 0.17813,-8.742199 1.15701,-12.374368 1.43484,-5.324025 4.35665,-11.647773 7.37996,-15.972662 1.26538,-1.810153 2.17223,-3.499061 2.01521,-3.753129 -0.558,-0.902863 -7.11099,-4.505305 -10.0892,-5.546434 -9.29638,-3.24986 -18.47309,-3.24986 -27.76947,0 -3.0265,1.058011 -9.53434,4.648662 -10.10813,5.57708 -0.16745,0.270923 0.52452,1.574361 1.5377,2.896529 2.76109,3.603146 6.62296,11.920873 7.91675,17.051154 1.58569,6.28776 1.58526,18.265017 -0.001,24.079728 -1.57153,5.761193 -3.86773,10.919582 -6.93818,15.586597 -1.50645,2.28976 -2.62019,4.35545 -2.47498,4.59041 0.14521,0.23496 1.78909,1.33323 3.65307,2.44059 8.11604,4.82166 17.9385,6.56468 27.37045,4.85698 l 1.3e-4,0 z m 66.41753,-0.55862 c 13.42755,-3.58634 24.26093,-14.204076 28.32604,-27.762177 1.17751,-3.927286 1.36293,-5.438929 1.36293,-11.111678 0,-5.672747 -0.18542,-7.184392 -1.36293,-11.111678 -4.11374,-13.720298 -14.67915,-24.010824 -28.57858,-27.835026 -4.52538,-1.245086 -15.12703,-1.263976 -19.69797,-0.0351 -3.76395,1.011924 -8.77251,3.250469 -12.23129,5.466706 l -2.38229,1.526475 2.45031,3.619941 c 6.55466,9.683472 8.97865,18.453816 8.49893,30.750331 -0.20454,5.242808 -0.55467,7.692519 -1.60151,11.205097 -1.70617,5.724903 -4.08823,10.785484 -7.03711,14.950056 l -2.32464,3.283 1.12661,0.88566 c 3.47491,2.7317 10.49326,5.73404 15.77383,6.74779 4.38775,0.84236 13.46892,0.54471 17.67767,-0.5794 z M 91.638856,96.936381 c 1.642286,-2.094668 4.327569,-7.346688 5.462819,-10.684459 3.277565,-9.636452 2.80131,-20.14818 -1.32877,-29.327977 -1.601197,-3.558932 -4.358641,-8.096079 -4.920377,-8.096079 -0.193565,0 -1.408895,1.761454 -2.700734,3.914341 -7.856501,13.093097 -7.684664,29.416551 0.442452,42.030417 1.076848,1.671343 2.046489,3.040791 2.154762,3.043221 0.108268,0.0025 0.508702,-0.393328 0.889848,-0.879464 z m 67.234704,-7.024828 c 2.75085,-5.974684 3.39942,-9.235769 3.39942,-17.092564 0,-6.010522 -0.1778,-7.637307 -1.18544,-10.8464 -1.73819,-5.535681 -5.73998,-13.141796 -6.91533,-13.14382 -0.62926,-0.0011 -3.22731,4.214041 -5.00834,8.125609 -3.28148,7.206947 -4.2896,17.322337 -2.5176,25.261747 0.93069,4.16997 3.95393,11.069272 6.06104,13.831832 l 1.38149,1.811228 1.59689,-2.246064 c 0.8783,-1.235335 2.31283,-3.801042 3.18787,-5.701568 z m 62.70985,0.585105 c 1.35075,-2.777919 2.82057,-6.57482 3.26627,-8.437561 1.16708,-4.877613 1.07261,-13.349905 -0.20491,-18.376956 -1.11024,-4.368771 -4.23636,-11.211773 -6.20065,-13.573058 l -1.24507,-1.496703 -1.93231,3.011931 c -8.34282,13.004149 -8.34646,30.389814 -0.009,43.38529 l 1.92322,2.997708 0.97332,-1.229941 c 0.53533,-0.676474 2.07848,-3.50279 3.42922,-6.28071 z"
         id="path6956"
         inkscape:connector-curvature="0"
         transform="matrix(0.18452472,0,0,-0.18452472,755.28641,702.38909)"
         inkscape:export-xdpi="248.19887"
         inkscape:export-ydpi="248.19887" />
      <path
         style="opacity:1;fill:#333333;fill-opacity:1;stroke:none;stroke-opacity:1"
         d=""
         id="path6958"
         inkscape:connector-curvature="0"
         transform="matrix(0.18452472,0,0,-0.18452472,755.28641,702.38909)" />
      <path
         inkscape:connector-curvature="0"
         style="fill:#808080"
         id="_312893696"
         d="m 762.8092,672.9572 -1.39012,2.77432 -1.39024,-2.77432 2.78036,0 z m 2.96731,-2.58227 -1.67352,0 -0.70373,1.40447 -3.96048,0 -0.70391,-1.40447 -1.67334,0 3.59176,6.83758 1.53158,0 3.59164,-6.83758 z m 12.68683,3.40988 0,-1.94592 c -0.46551,-0.35083 -1.17057,-0.50358 -1.71741,-0.47583 -0.87681,0.0445 -1.45654,0.53303 -1.48398,1.40848 -0.0281,0.89714 0.61093,1.41624 1.49469,1.47071 0.52342,0.0323 1.25194,-0.0978 1.7067,-0.45739 z m 1.46665,-3.40988 0,6.83758 -1.46665,0 0,-2.30012 c -0.60214,0.33424 -1.41559,0.49468 -2.18455,0.44497 -1.49552,-0.0965 -2.577,-1.01386 -2.52947,-2.59955 0.0463,-1.5476 1.02755,-2.41073 2.51124,-2.48948 0.80705,-0.0429 1.62868,0.17351 2.29862,0.67103 l 0.0693,-0.56459 1.30151,0 z m -7.62262,0 0,4.81333 -1.46683,0 0,-3.42752 c -0.3456,-0.26467 -1.02205,-0.43515 -1.47896,-0.43515 -0.71007,0 -1.28919,0.33212 -1.28919,1.09571 l 0,2.76696 -1.46665,0 0,-2.74878 c 0,-0.75012 0.18043,-1.32823 0.62654,-1.70527 0.39369,-0.33261 1.00955,-0.50909 1.67681,-0.50909 0.71742,0 1.54736,0.25684 2.03423,0.65805 l 0.0625,-0.50816 1.30157,0 z m 10.92781,5.53631 0,1.30139 -1.46677,0 0,-1.30139 1.46677,0 z m 0,-5.53631 0,4.81333 -1.46677,0 0,-4.81333 1.46677,0 z"
         inkscape:export-xdpi="248.19887"
         inkscape:export-ydpi="248.19887" />
    </g>
  </g>
</svg>
